<mxfile host="app.diagrams.net" modified="2022-02-23T11:24:25.335Z" agent="5.0 (Windows NT 10.0; Win64; x64) AppleWebKit/537.36 (KHTML, like Gecko) Chrome/98.0.4758.102 Safari/537.36" etag="1PeBA9mfxIcXsZA0hWDN" version="16.6.2" type="github">
  <diagram id="hG0S3P9mw6wppGRl6Zj7" name="Page-1">
    <mxGraphModel dx="827" dy="472" grid="1" gridSize="10" guides="1" tooltips="1" connect="1" arrows="1" fold="1" page="1" pageScale="1" pageWidth="1169" pageHeight="827" math="0" shadow="0">
      <root>
        <mxCell id="0" />
        <mxCell id="1" parent="0" />
        <mxCell id="IvriwTNXwanx6Q1rdoZe-1" value="&lt;p style=&quot;margin: 4px 0px 0px ; text-align: center&quot;&gt;Eu&lt;/p&gt;&lt;hr&gt;&lt;p style=&quot;margin: 0px ; margin-left: 8px&quot;&gt;&lt;br&gt;&lt;/p&gt;" style="verticalAlign=top;align=left;overflow=fill;fontSize=12;fontFamily=Helvetica;html=1;" parent="1" vertex="1">
          <mxGeometry x="480" y="300" width="540" height="500" as="geometry" />
        </mxCell>
        <mxCell id="IvriwTNXwanx6Q1rdoZe-3" style="edgeStyle=orthogonalEdgeStyle;rounded=0;orthogonalLoop=1;jettySize=auto;html=1;exitX=1;exitY=0.5;exitDx=0;exitDy=0;entryX=0.5;entryY=0;entryDx=0;entryDy=0;" parent="1" source="IvriwTNXwanx6Q1rdoZe-4" target="IvriwTNXwanx6Q1rdoZe-8" edge="1">
          <mxGeometry relative="1" as="geometry" />
        </mxCell>
        <mxCell id="IvriwTNXwanx6Q1rdoZe-4" value="" style="ellipse;html=1;shape=startState;fillColor=#000000;strokeColor=#ff0000;" parent="1" vertex="1">
          <mxGeometry x="510" y="350" width="30" height="30" as="geometry" />
        </mxCell>
        <mxCell id="IvriwTNXwanx6Q1rdoZe-38" style="edgeStyle=orthogonalEdgeStyle;rounded=0;orthogonalLoop=1;jettySize=auto;html=1;exitX=1;exitY=0.5;exitDx=0;exitDy=0;entryX=0;entryY=0.5;entryDx=0;entryDy=0;" parent="1" source="IvriwTNXwanx6Q1rdoZe-8" target="IvriwTNXwanx6Q1rdoZe-36" edge="1">
          <mxGeometry relative="1" as="geometry" />
        </mxCell>
        <mxCell id="IvriwTNXwanx6Q1rdoZe-8" value="Levantar da cama" style="rounded=1;whiteSpace=wrap;html=1;arcSize=40;fontColor=#000000;fillColor=#ffffc0;strokeColor=#ff0000;" parent="1" vertex="1">
          <mxGeometry x="530" y="400" width="120" height="40" as="geometry" />
        </mxCell>
        <mxCell id="IvriwTNXwanx6Q1rdoZe-45" style="edgeStyle=orthogonalEdgeStyle;rounded=0;orthogonalLoop=1;jettySize=auto;html=1;exitX=0;exitY=0.5;exitDx=0;exitDy=0;entryX=1;entryY=0.5;entryDx=0;entryDy=0;" parent="1" source="IvriwTNXwanx6Q1rdoZe-34" target="IvriwTNXwanx6Q1rdoZe-43" edge="1">
          <mxGeometry relative="1" as="geometry" />
        </mxCell>
        <mxCell id="IvriwTNXwanx6Q1rdoZe-47" value="Sim" style="edgeLabel;html=1;align=center;verticalAlign=middle;resizable=0;points=[];" parent="IvriwTNXwanx6Q1rdoZe-45" vertex="1" connectable="0">
          <mxGeometry x="0.3867" y="2" relative="1" as="geometry">
            <mxPoint x="21" y="-2" as="offset" />
          </mxGeometry>
        </mxCell>
        <mxCell id="IvriwTNXwanx6Q1rdoZe-57" style="edgeStyle=orthogonalEdgeStyle;rounded=0;orthogonalLoop=1;jettySize=auto;html=1;exitX=0.5;exitY=1;exitDx=0;exitDy=0;" parent="1" source="IvriwTNXwanx6Q1rdoZe-34" target="IvriwTNXwanx6Q1rdoZe-56" edge="1">
          <mxGeometry relative="1" as="geometry" />
        </mxCell>
        <mxCell id="IvriwTNXwanx6Q1rdoZe-58" value="Não" style="edgeLabel;html=1;align=center;verticalAlign=middle;resizable=0;points=[];" parent="IvriwTNXwanx6Q1rdoZe-57" vertex="1" connectable="0">
          <mxGeometry x="0.4074" relative="1" as="geometry">
            <mxPoint y="-7" as="offset" />
          </mxGeometry>
        </mxCell>
        <mxCell id="IvriwTNXwanx6Q1rdoZe-34" value="Verificar-se &lt;br&gt;tem aula&lt;br&gt;às 07:30" style="rhombus;whiteSpace=wrap;html=1;fillColor=#ffffc0;strokeColor=#ff0000;" parent="1" vertex="1">
          <mxGeometry x="842.5" y="430" width="135" height="75" as="geometry" />
        </mxCell>
        <mxCell id="83tVsfYuA2QvCQg0XglB-2" style="edgeStyle=orthogonalEdgeStyle;rounded=0;orthogonalLoop=1;jettySize=auto;html=1;exitX=0.5;exitY=1;exitDx=0;exitDy=0;entryX=0.5;entryY=0;entryDx=0;entryDy=0;" edge="1" parent="1" source="IvriwTNXwanx6Q1rdoZe-36" target="IvriwTNXwanx6Q1rdoZe-39">
          <mxGeometry relative="1" as="geometry" />
        </mxCell>
        <mxCell id="IvriwTNXwanx6Q1rdoZe-36" value="Escovar os dentes" style="rounded=1;whiteSpace=wrap;html=1;arcSize=40;fontColor=#000000;fillColor=#ffffc0;strokeColor=#ff0000;" parent="1" vertex="1">
          <mxGeometry x="695" y="330" width="120" height="40" as="geometry" />
        </mxCell>
        <mxCell id="83tVsfYuA2QvCQg0XglB-3" style="edgeStyle=orthogonalEdgeStyle;rounded=0;orthogonalLoop=1;jettySize=auto;html=1;exitX=1;exitY=0.5;exitDx=0;exitDy=0;entryX=0;entryY=0.5;entryDx=0;entryDy=0;" edge="1" parent="1" source="IvriwTNXwanx6Q1rdoZe-39" target="83tVsfYuA2QvCQg0XglB-1">
          <mxGeometry relative="1" as="geometry" />
        </mxCell>
        <mxCell id="IvriwTNXwanx6Q1rdoZe-39" value="Tomar café" style="rounded=1;whiteSpace=wrap;html=1;arcSize=40;fontColor=#000000;fillColor=#ffffc0;strokeColor=#ff0000;" parent="1" vertex="1">
          <mxGeometry x="695" y="390" width="120" height="40" as="geometry" />
        </mxCell>
        <mxCell id="IvriwTNXwanx6Q1rdoZe-49" style="edgeStyle=orthogonalEdgeStyle;rounded=0;orthogonalLoop=1;jettySize=auto;html=1;exitX=0;exitY=0.5;exitDx=0;exitDy=0;entryX=0.5;entryY=0;entryDx=0;entryDy=0;" parent="1" source="IvriwTNXwanx6Q1rdoZe-43" target="IvriwTNXwanx6Q1rdoZe-48" edge="1">
          <mxGeometry relative="1" as="geometry" />
        </mxCell>
        <mxCell id="IvriwTNXwanx6Q1rdoZe-43" value="Assistir aula" style="rounded=1;whiteSpace=wrap;html=1;arcSize=40;fontColor=#000000;fillColor=#ffffc0;strokeColor=#ff0000;" parent="1" vertex="1">
          <mxGeometry x="660" y="447.5" width="120" height="40" as="geometry" />
        </mxCell>
        <mxCell id="IvriwTNXwanx6Q1rdoZe-73" style="edgeStyle=orthogonalEdgeStyle;rounded=0;jumpStyle=sharp;orthogonalLoop=1;jettySize=auto;html=1;exitX=1;exitY=0.5;exitDx=0;exitDy=0;entryX=0;entryY=0.5;entryDx=0;entryDy=0;" parent="1" source="IvriwTNXwanx6Q1rdoZe-48" target="IvriwTNXwanx6Q1rdoZe-72" edge="1">
          <mxGeometry relative="1" as="geometry" />
        </mxCell>
        <mxCell id="IvriwTNXwanx6Q1rdoZe-74" style="edgeStyle=orthogonalEdgeStyle;rounded=0;jumpStyle=sharp;orthogonalLoop=1;jettySize=auto;html=1;exitX=0.5;exitY=1;exitDx=0;exitDy=0;entryX=0.5;entryY=0;entryDx=0;entryDy=0;" parent="1" source="IvriwTNXwanx6Q1rdoZe-48" target="IvriwTNXwanx6Q1rdoZe-51" edge="1">
          <mxGeometry relative="1" as="geometry">
            <Array as="points">
              <mxPoint x="568" y="590" />
              <mxPoint x="568" y="590" />
            </Array>
          </mxGeometry>
        </mxCell>
        <mxCell id="IvriwTNXwanx6Q1rdoZe-75" value="Sim" style="edgeLabel;html=1;align=center;verticalAlign=middle;resizable=0;points=[];" parent="IvriwTNXwanx6Q1rdoZe-74" vertex="1" connectable="0">
          <mxGeometry x="-0.3037" y="-1" relative="1" as="geometry">
            <mxPoint as="offset" />
          </mxGeometry>
        </mxCell>
        <mxCell id="IvriwTNXwanx6Q1rdoZe-48" value="Verificar-se &lt;br&gt;tem aula&lt;br&gt;às 09:20" style="rhombus;whiteSpace=wrap;html=1;fillColor=#ffffc0;strokeColor=#ff0000;" parent="1" vertex="1">
          <mxGeometry x="500" y="507.5" width="135" height="75" as="geometry" />
        </mxCell>
        <mxCell id="IvriwTNXwanx6Q1rdoZe-92" style="edgeStyle=orthogonalEdgeStyle;rounded=0;jumpStyle=sharp;orthogonalLoop=1;jettySize=auto;html=1;exitX=0.75;exitY=0;exitDx=0;exitDy=0;entryX=0;entryY=1;entryDx=0;entryDy=0;" parent="1" source="IvriwTNXwanx6Q1rdoZe-51" target="IvriwTNXwanx6Q1rdoZe-72" edge="1">
          <mxGeometry relative="1" as="geometry">
            <Array as="points">
              <mxPoint x="598" y="600" />
              <mxPoint x="714" y="600" />
            </Array>
          </mxGeometry>
        </mxCell>
        <mxCell id="IvriwTNXwanx6Q1rdoZe-51" value="Assistir aula" style="rounded=1;whiteSpace=wrap;html=1;arcSize=40;fontColor=#000000;fillColor=#ffffc0;strokeColor=#ff0000;" parent="1" vertex="1">
          <mxGeometry x="507.5" y="650" width="120" height="40" as="geometry" />
        </mxCell>
        <mxCell id="IvriwTNXwanx6Q1rdoZe-60" style="edgeStyle=orthogonalEdgeStyle;rounded=0;orthogonalLoop=1;jettySize=auto;html=1;exitX=0.5;exitY=1;exitDx=0;exitDy=0;entryX=0.5;entryY=0;entryDx=0;entryDy=0;" parent="1" source="IvriwTNXwanx6Q1rdoZe-56" target="IvriwTNXwanx6Q1rdoZe-59" edge="1">
          <mxGeometry relative="1" as="geometry">
            <Array as="points">
              <mxPoint x="910" y="640" />
              <mxPoint x="910" y="640" />
            </Array>
          </mxGeometry>
        </mxCell>
        <mxCell id="IvriwTNXwanx6Q1rdoZe-71" value="Sim" style="edgeLabel;html=1;align=center;verticalAlign=middle;resizable=0;points=[];" parent="IvriwTNXwanx6Q1rdoZe-60" vertex="1" connectable="0">
          <mxGeometry x="-0.5418" y="-1" relative="1" as="geometry">
            <mxPoint x="1" y="9" as="offset" />
          </mxGeometry>
        </mxCell>
        <mxCell id="IvriwTNXwanx6Q1rdoZe-65" style="edgeStyle=orthogonalEdgeStyle;rounded=0;orthogonalLoop=1;jettySize=auto;html=1;exitX=1;exitY=0.5;exitDx=0;exitDy=0;entryX=0.5;entryY=0;entryDx=0;entryDy=0;" parent="1" source="IvriwTNXwanx6Q1rdoZe-56" target="IvriwTNXwanx6Q1rdoZe-68" edge="1">
          <mxGeometry relative="1" as="geometry">
            <mxPoint x="977" y="690" as="targetPoint" />
            <Array as="points">
              <mxPoint x="990" y="577" />
              <mxPoint x="990" y="700" />
              <mxPoint x="950" y="700" />
            </Array>
          </mxGeometry>
        </mxCell>
        <mxCell id="IvriwTNXwanx6Q1rdoZe-66" value="Não" style="edgeLabel;html=1;align=center;verticalAlign=middle;resizable=0;points=[];" parent="IvriwTNXwanx6Q1rdoZe-65" vertex="1" connectable="0">
          <mxGeometry x="-0.7891" y="-1" relative="1" as="geometry">
            <mxPoint x="1" y="36" as="offset" />
          </mxGeometry>
        </mxCell>
        <mxCell id="IvriwTNXwanx6Q1rdoZe-56" value="Verificar-se &lt;br&gt;tem tarefas" style="rhombus;whiteSpace=wrap;html=1;fillColor=#ffffc0;strokeColor=#ff0000;" parent="1" vertex="1">
          <mxGeometry x="842.5" y="540" width="135" height="75" as="geometry" />
        </mxCell>
        <mxCell id="IvriwTNXwanx6Q1rdoZe-86" style="edgeStyle=orthogonalEdgeStyle;rounded=0;jumpStyle=sharp;orthogonalLoop=1;jettySize=auto;html=1;exitX=0;exitY=0.5;exitDx=0;exitDy=0;entryX=0.75;entryY=0;entryDx=0;entryDy=0;" parent="1" source="IvriwTNXwanx6Q1rdoZe-59" target="IvriwTNXwanx6Q1rdoZe-84" edge="1">
          <mxGeometry relative="1" as="geometry">
            <Array as="points">
              <mxPoint x="840" y="670" />
              <mxPoint x="840" y="720" />
              <mxPoint x="777" y="720" />
            </Array>
          </mxGeometry>
        </mxCell>
        <mxCell id="IvriwTNXwanx6Q1rdoZe-59" value="Fazer tarefas" style="rounded=1;whiteSpace=wrap;html=1;arcSize=40;fontColor=#000000;fillColor=#ffffc0;strokeColor=#ff0000;" parent="1" vertex="1">
          <mxGeometry x="850" y="650" width="120" height="40" as="geometry" />
        </mxCell>
        <mxCell id="IvriwTNXwanx6Q1rdoZe-85" style="edgeStyle=orthogonalEdgeStyle;rounded=0;jumpStyle=sharp;orthogonalLoop=1;jettySize=auto;html=1;exitX=0;exitY=0.5;exitDx=0;exitDy=0;" parent="1" source="IvriwTNXwanx6Q1rdoZe-68" target="IvriwTNXwanx6Q1rdoZe-84" edge="1">
          <mxGeometry relative="1" as="geometry" />
        </mxCell>
        <mxCell id="IvriwTNXwanx6Q1rdoZe-68" value="Ajudar em casa" style="rounded=1;whiteSpace=wrap;html=1;arcSize=40;fontColor=#000000;fillColor=#ffffc0;strokeColor=#ff0000;" parent="1" vertex="1">
          <mxGeometry x="890" y="750" width="120" height="40" as="geometry" />
        </mxCell>
        <mxCell id="IvriwTNXwanx6Q1rdoZe-77" style="edgeStyle=orthogonalEdgeStyle;rounded=0;jumpStyle=sharp;orthogonalLoop=1;jettySize=auto;html=1;exitX=0.5;exitY=1;exitDx=0;exitDy=0;entryX=0.5;entryY=0;entryDx=0;entryDy=0;" parent="1" source="IvriwTNXwanx6Q1rdoZe-72" target="IvriwTNXwanx6Q1rdoZe-76" edge="1">
          <mxGeometry relative="1" as="geometry">
            <Array as="points">
              <mxPoint x="748" y="590" />
              <mxPoint x="748" y="590" />
            </Array>
          </mxGeometry>
        </mxCell>
        <mxCell id="IvriwTNXwanx6Q1rdoZe-78" value="Sim" style="edgeLabel;html=1;align=center;verticalAlign=middle;resizable=0;points=[];" parent="IvriwTNXwanx6Q1rdoZe-77" vertex="1" connectable="0">
          <mxGeometry x="0.227" relative="1" as="geometry">
            <mxPoint y="-12" as="offset" />
          </mxGeometry>
        </mxCell>
        <mxCell id="IvriwTNXwanx6Q1rdoZe-80" style="edgeStyle=orthogonalEdgeStyle;rounded=0;jumpStyle=sharp;orthogonalLoop=1;jettySize=auto;html=1;exitX=1;exitY=0.5;exitDx=0;exitDy=0;entryX=1;entryY=0.5;entryDx=0;entryDy=0;" parent="1" source="IvriwTNXwanx6Q1rdoZe-72" target="IvriwTNXwanx6Q1rdoZe-79" edge="1">
          <mxGeometry relative="1" as="geometry">
            <Array as="points">
              <mxPoint x="820" y="545" />
              <mxPoint x="820" y="690" />
            </Array>
          </mxGeometry>
        </mxCell>
        <mxCell id="IvriwTNXwanx6Q1rdoZe-82" value="Não" style="edgeLabel;html=1;align=center;verticalAlign=middle;resizable=0;points=[];" parent="IvriwTNXwanx6Q1rdoZe-80" vertex="1" connectable="0">
          <mxGeometry x="0.166" y="3" relative="1" as="geometry">
            <mxPoint x="-3" y="34" as="offset" />
          </mxGeometry>
        </mxCell>
        <mxCell id="IvriwTNXwanx6Q1rdoZe-72" value="Verificar-se &lt;br&gt;tem tarefas" style="rhombus;whiteSpace=wrap;html=1;fillColor=#ffffc0;strokeColor=#ff0000;" parent="1" vertex="1">
          <mxGeometry x="680" y="507.5" width="135" height="75" as="geometry" />
        </mxCell>
        <mxCell id="IvriwTNXwanx6Q1rdoZe-88" style="edgeStyle=orthogonalEdgeStyle;rounded=0;jumpStyle=sharp;orthogonalLoop=1;jettySize=auto;html=1;exitX=0;exitY=0.5;exitDx=0;exitDy=0;entryX=0.25;entryY=0;entryDx=0;entryDy=0;" parent="1" source="IvriwTNXwanx6Q1rdoZe-76" target="IvriwTNXwanx6Q1rdoZe-84" edge="1">
          <mxGeometry relative="1" as="geometry">
            <mxPoint x="668" y="710" as="targetPoint" />
            <Array as="points">
              <mxPoint x="650" y="635" />
              <mxPoint x="650" y="730" />
              <mxPoint x="718" y="730" />
            </Array>
          </mxGeometry>
        </mxCell>
        <mxCell id="IvriwTNXwanx6Q1rdoZe-76" value="Fazer tarefas" style="rounded=1;whiteSpace=wrap;html=1;arcSize=40;fontColor=#000000;fillColor=#ffffc0;strokeColor=#ff0000;" parent="1" vertex="1">
          <mxGeometry x="687.5" y="615" width="120" height="40" as="geometry" />
        </mxCell>
        <mxCell id="IvriwTNXwanx6Q1rdoZe-87" style="edgeStyle=orthogonalEdgeStyle;rounded=0;jumpStyle=sharp;orthogonalLoop=1;jettySize=auto;html=1;exitX=0;exitY=0.5;exitDx=0;exitDy=0;entryX=0.5;entryY=0;entryDx=0;entryDy=0;" parent="1" source="IvriwTNXwanx6Q1rdoZe-79" target="IvriwTNXwanx6Q1rdoZe-84" edge="1">
          <mxGeometry relative="1" as="geometry">
            <Array as="points">
              <mxPoint x="668" y="690" />
              <mxPoint x="668" y="720" />
              <mxPoint x="748" y="720" />
            </Array>
          </mxGeometry>
        </mxCell>
        <mxCell id="IvriwTNXwanx6Q1rdoZe-79" value="Ajudar em casa" style="rounded=1;whiteSpace=wrap;html=1;arcSize=40;fontColor=#000000;fillColor=#ffffc0;strokeColor=#ff0000;" parent="1" vertex="1">
          <mxGeometry x="687.5" y="670" width="120" height="40" as="geometry" />
        </mxCell>
        <mxCell id="IvriwTNXwanx6Q1rdoZe-90" style="edgeStyle=orthogonalEdgeStyle;rounded=0;jumpStyle=sharp;orthogonalLoop=1;jettySize=auto;html=1;exitX=0;exitY=0.5;exitDx=0;exitDy=0;entryX=1;entryY=0.5;entryDx=0;entryDy=0;" parent="1" source="IvriwTNXwanx6Q1rdoZe-84" target="IvriwTNXwanx6Q1rdoZe-89" edge="1">
          <mxGeometry relative="1" as="geometry" />
        </mxCell>
        <mxCell id="IvriwTNXwanx6Q1rdoZe-84" value="Almoçar" style="rounded=1;whiteSpace=wrap;html=1;arcSize=40;fontColor=#000000;fillColor=#ffffc0;strokeColor=#ff0000;" parent="1" vertex="1">
          <mxGeometry x="687.5" y="750" width="120" height="40" as="geometry" />
        </mxCell>
        <mxCell id="IvriwTNXwanx6Q1rdoZe-89" value="" style="ellipse;html=1;shape=endState;fillColor=#000000;strokeColor=#ff0000;" parent="1" vertex="1">
          <mxGeometry x="552.5" y="755" width="30" height="30" as="geometry" />
        </mxCell>
        <mxCell id="83tVsfYuA2QvCQg0XglB-4" style="edgeStyle=orthogonalEdgeStyle;rounded=0;orthogonalLoop=1;jettySize=auto;html=1;exitX=0.5;exitY=1;exitDx=0;exitDy=0;" edge="1" parent="1" source="83tVsfYuA2QvCQg0XglB-1" target="IvriwTNXwanx6Q1rdoZe-34">
          <mxGeometry relative="1" as="geometry" />
        </mxCell>
        <mxCell id="83tVsfYuA2QvCQg0XglB-1" value="Escovar os dentes" style="rounded=1;whiteSpace=wrap;html=1;arcSize=40;fontColor=#000000;fillColor=#ffffc0;strokeColor=#ff0000;" vertex="1" parent="1">
          <mxGeometry x="850" y="350" width="120" height="40" as="geometry" />
        </mxCell>
      </root>
    </mxGraphModel>
  </diagram>
</mxfile>
